<?xml version="1.0" encoding="UTF-8" standalone="no"?>
<!DOCTYPE svg PUBLIC "-//W3C//DTD SVG 1.1//EN"
 "http://www.w3.org/Graphics/SVG/1.1/DTD/svg11.dtd">
<!-- Generated by graphviz version 2.47.0 (20210316.0004)
 -->
<!-- Title: dependencies Pages: 1 -->
<svg width="767pt" height="284pt"
 viewBox="0.00 0.00 767.00 284.00" xmlns="http://www.w3.org/2000/svg" xmlns:xlink="http://www.w3.org/1999/xlink">
<g id="graph0" class="graph" transform="scale(1 1) rotate(0) translate(4 280)">
<title>dependencies</title>
<polygon fill="white" stroke="transparent" points="-4,4 -4,-280 763,-280 763,4 -4,4"/>
<text text-anchor="start" x="358.51" y="-42.4" font-family="Times-12" font-weight="bold" font-size="14.00">Legend</text>
<polygon fill="#ffffb3" stroke="transparent" points="145.5,-10 145.5,-30 165.5,-30 165.5,-10 145.5,-10"/>
<text text-anchor="start" x="169.13" y="-15.4" font-family="Times-12" font-size="14.00"> &#160;Declarations</text>
<polygon fill="#8dd3c7" stroke="transparent" points="258.5,-10 258.5,-30 278.5,-30 278.5,-10 258.5,-10"/>
<text text-anchor="start" x="282.23" y="-15.4" font-family="Times-12" font-size="14.00"> &#160;Module</text>
<polygon fill="#80b1d3" stroke="transparent" points="344.5,-10 344.5,-30 364.5,-30 364.5,-10 344.5,-10"/>
<text text-anchor="start" x="368.28" y="-15.4" font-family="Times-12" font-size="14.00"> &#160;Bootstrap</text>
<polygon fill="#fdb462" stroke="transparent" points="441.5,-10 441.5,-30 461.5,-30 461.5,-10 441.5,-10"/>
<text text-anchor="start" x="465.17" y="-15.4" font-family="Times-12" font-size="14.00"> &#160;Providers</text>
<polygon fill="#fb8072" stroke="transparent" points="537.5,-10 537.5,-30 557.5,-30 557.5,-10 537.5,-10"/>
<text text-anchor="start" x="561.23" y="-15.4" font-family="Times-12" font-size="14.00"> &#160;Exports</text>
<g id="clust1" class="cluster">
<title>cluster_UserModule</title>
<polygon fill="none" stroke="black" stroke-dasharray="1,5" points="8,-70 8,-268 751,-268 751,-70 8,-70"/>
</g>
<g id="clust3" class="cluster">
<title>cluster_UserModule_imports</title>
<polygon fill="none" stroke="black" points="629,-78 629,-130 743,-130 743,-78 629,-78"/>
</g>
<g id="clust6" class="cluster">
<title>cluster_UserModule_providers</title>
<polygon fill="none" stroke="black" points="16,-78 16,-130 621,-130 621,-78 16,-78"/>
</g>
<g id="clust4" class="cluster">
<title>cluster_UserModule_exports</title>
<polygon fill="none" stroke="black" points="292,-208 292,-260 544,-260 544,-208 292,-208"/>
</g>
<!-- PrismaModule -->
<g id="node1" class="node">
<title>PrismaModule</title>
<polygon fill="#8dd3c7" stroke="black" points="735.43,-122 732.43,-126 711.43,-126 708.43,-122 636.57,-122 636.57,-86 735.43,-86 735.43,-122"/>
<text text-anchor="middle" x="686" y="-99.8" font-family="Times,serif" font-size="14.00">PrismaModule</text>
</g>
<!-- UserModule -->
<g id="node2" class="node">
<title>UserModule</title>
<polygon fill="#8dd3c7" stroke="black" points="449.98,-187 446.98,-191 425.98,-191 422.98,-187 364.02,-187 364.02,-151 449.98,-151 449.98,-187"/>
<text text-anchor="middle" x="407" y="-164.8" font-family="Times,serif" font-size="14.00">UserModule</text>
</g>
<!-- PrismaModule&#45;&gt;UserModule -->
<g id="edge1" class="edge">
<title>PrismaModule&#45;&gt;UserModule</title>
<path fill="none" stroke="black" d="M686,-122.11C686,-141.34 686,-169 686,-169 686,-169 459.98,-169 459.98,-169"/>
<polygon fill="black" stroke="black" points="459.98,-165.5 449.98,-169 459.98,-172.5 459.98,-165.5"/>
</g>
<!-- CreateUserProvider  -->
<g id="node3" class="node">
<title>CreateUserProvider </title>
<polygon fill="#fb8072" stroke="black" points="536.17,-252 405.83,-252 405.83,-216 536.17,-216 536.17,-252"/>
<text text-anchor="middle" x="471" y="-229.8" font-family="Times,serif" font-size="14.00">CreateUserProvider </text>
</g>
<!-- UserModule&#45;&gt;CreateUserProvider  -->
<g id="edge2" class="edge">
<title>UserModule&#45;&gt;CreateUserProvider </title>
<path fill="none" stroke="black" stroke-dasharray="5,2" d="M427.83,-187.11C427.83,-187.11 427.83,-205.99 427.83,-205.99"/>
<polygon fill="black" stroke="black" points="424.33,-205.99 427.83,-215.99 431.33,-205.99 424.33,-205.99"/>
</g>
<!-- UserService  -->
<g id="node4" class="node">
<title>UserService </title>
<polygon fill="#fb8072" stroke="black" points="387.9,-252 300.1,-252 300.1,-216 387.9,-216 387.9,-252"/>
<text text-anchor="middle" x="344" y="-229.8" font-family="Times,serif" font-size="14.00">UserService </text>
</g>
<!-- UserModule&#45;&gt;UserService  -->
<g id="edge3" class="edge">
<title>UserModule&#45;&gt;UserService </title>
<path fill="none" stroke="black" stroke-dasharray="5,2" d="M375.98,-187.11C375.98,-187.11 375.98,-205.99 375.98,-205.99"/>
<polygon fill="black" stroke="black" points="372.48,-205.99 375.98,-215.99 379.48,-205.99 372.48,-205.99"/>
</g>
<!-- CreateUserProvider -->
<g id="node5" class="node">
<title>CreateUserProvider</title>
<ellipse fill="#fdb462" stroke="black" cx="525" cy="-104" rx="87.94" ry="18"/>
<text text-anchor="middle" x="525" y="-99.8" font-family="Times,serif" font-size="14.00">CreateUserProvider</text>
</g>
<!-- CreateUserProvider&#45;&gt;UserModule -->
<g id="edge4" class="edge">
<title>CreateUserProvider&#45;&gt;UserModule</title>
<path fill="none" stroke="black" d="M443.64,-110.96C443.64,-110.96 443.64,-140.81 443.64,-140.81"/>
<polygon fill="black" stroke="black" points="440.14,-140.81 443.64,-150.81 447.14,-140.81 440.14,-140.81"/>
</g>
<!-- FindOneUserByEmailProvider -->
<g id="node6" class="node">
<title>FindOneUserByEmailProvider</title>
<ellipse fill="#fdb462" stroke="black" cx="289" cy="-104" rx="130.8" ry="18"/>
<text text-anchor="middle" x="289" y="-99.8" font-family="Times,serif" font-size="14.00">FindOneUserByEmailProvider</text>
</g>
<!-- FindOneUserByEmailProvider&#45;&gt;UserModule -->
<g id="edge5" class="edge">
<title>FindOneUserByEmailProvider&#45;&gt;UserModule</title>
<path fill="none" stroke="black" d="M391.83,-115.32C391.83,-115.32 391.83,-140.94 391.83,-140.94"/>
<polygon fill="black" stroke="black" points="388.33,-140.94 391.83,-150.94 395.33,-140.94 388.33,-140.94"/>
</g>
<!-- UserService -->
<g id="node7" class="node">
<title>UserService</title>
<ellipse fill="#fdb462" stroke="black" cx="82" cy="-104" rx="58.44" ry="18"/>
<text text-anchor="middle" x="82" y="-99.8" font-family="Times,serif" font-size="14.00">UserService</text>
</g>
<!-- UserService&#45;&gt;UserModule -->
<g id="edge6" class="edge">
<title>UserService&#45;&gt;UserModule</title>
<path fill="none" stroke="black" d="M82,-122.11C82,-141.34 82,-169 82,-169 82,-169 353.84,-169 353.84,-169"/>
<polygon fill="black" stroke="black" points="353.84,-172.5 363.84,-169 353.84,-165.5 353.84,-172.5"/>
</g>
</g>
</svg>
