<?xml version="1.0" encoding="UTF-8" standalone="no"?>
<!DOCTYPE svg PUBLIC "-//W3C//DTD SVG 1.1//EN"
 "http://www.w3.org/Graphics/SVG/1.1/DTD/svg11.dtd">
<!-- Generated by graphviz version 2.47.0 (20210316.0004)
 -->
<!-- Title: dependencies Pages: 1 -->
<svg width="700pt" height="284pt"
 viewBox="0.00 0.00 700.00 284.00" xmlns="http://www.w3.org/2000/svg" xmlns:xlink="http://www.w3.org/1999/xlink">
<g id="graph0" class="graph" transform="scale(1 1) rotate(0) translate(4 280)">
<title>dependencies</title>
<polygon fill="white" stroke="transparent" points="-4,4 -4,-280 696,-280 696,4 -4,4"/>
<text text-anchor="start" x="325.01" y="-42.4" font-family="Times-12" font-weight="bold" font-size="14.00">Legend</text>
<polygon fill="#ffffb3" stroke="transparent" points="112,-10 112,-30 132,-30 132,-10 112,-10"/>
<text text-anchor="start" x="135.63" y="-15.4" font-family="Times-12" font-size="14.00"> &#160;Declarations</text>
<polygon fill="#8dd3c7" stroke="transparent" points="225,-10 225,-30 245,-30 245,-10 225,-10"/>
<text text-anchor="start" x="248.73" y="-15.4" font-family="Times-12" font-size="14.00"> &#160;Module</text>
<polygon fill="#80b1d3" stroke="transparent" points="311,-10 311,-30 331,-30 331,-10 311,-10"/>
<text text-anchor="start" x="334.78" y="-15.4" font-family="Times-12" font-size="14.00"> &#160;Bootstrap</text>
<polygon fill="#fdb462" stroke="transparent" points="408,-10 408,-30 428,-30 428,-10 408,-10"/>
<text text-anchor="start" x="431.67" y="-15.4" font-family="Times-12" font-size="14.00"> &#160;Providers</text>
<polygon fill="#fb8072" stroke="transparent" points="504,-10 504,-30 524,-30 524,-10 504,-10"/>
<text text-anchor="start" x="527.73" y="-15.4" font-family="Times-12" font-size="14.00"> &#160;Exports</text>
<g id="clust1" class="cluster">
<title>cluster_AuthModule</title>
<polygon fill="none" stroke="black" stroke-dasharray="1,5" points="8,-70 8,-268 684,-268 684,-70 8,-70"/>
</g>
<g id="clust4" class="cluster">
<title>cluster_AuthModule_exports</title>
<polygon fill="none" stroke="black" points="252,-208 252,-260 490,-260 490,-208 252,-208"/>
</g>
<g id="clust3" class="cluster">
<title>cluster_AuthModule_imports</title>
<polygon fill="none" stroke="black" points="452,-78 452,-130 676,-130 676,-78 452,-78"/>
</g>
<g id="clust6" class="cluster">
<title>cluster_AuthModule_providers</title>
<polygon fill="none" stroke="black" points="16,-78 16,-130 444,-130 444,-78 16,-78"/>
</g>
<!-- PrismaModule -->
<g id="node1" class="node">
<title>PrismaModule</title>
<polygon fill="#8dd3c7" stroke="black" points="668.43,-122 665.43,-126 644.43,-126 641.43,-122 569.57,-122 569.57,-86 668.43,-86 668.43,-122"/>
<text text-anchor="middle" x="619" y="-99.8" font-family="Times,serif" font-size="14.00">PrismaModule</text>
</g>
<!-- AuthModule -->
<g id="node3" class="node">
<title>AuthModule</title>
<polygon fill="#8dd3c7" stroke="black" points="420.55,-187 417.55,-191 396.55,-191 393.55,-187 333.45,-187 333.45,-151 420.55,-151 420.55,-187"/>
<text text-anchor="middle" x="377" y="-164.8" font-family="Times,serif" font-size="14.00">AuthModule</text>
</g>
<!-- PrismaModule&#45;&gt;AuthModule -->
<g id="edge1" class="edge">
<title>PrismaModule&#45;&gt;AuthModule</title>
<path fill="none" stroke="black" d="M619,-122.28C619,-143.32 619,-175 619,-175 619,-175 430.82,-175 430.82,-175"/>
<polygon fill="black" stroke="black" points="430.82,-171.5 420.82,-175 430.82,-178.5 430.82,-171.5"/>
</g>
<!-- RedisModule -->
<g id="node2" class="node">
<title>RedisModule</title>
<polygon fill="#8dd3c7" stroke="black" points="551.94,-122 548.94,-126 527.94,-126 524.94,-122 460.06,-122 460.06,-86 551.94,-86 551.94,-122"/>
<text text-anchor="middle" x="506" y="-99.8" font-family="Times,serif" font-size="14.00">RedisModule</text>
</g>
<!-- RedisModule&#45;&gt;AuthModule -->
<g id="edge2" class="edge">
<title>RedisModule&#45;&gt;AuthModule</title>
<path fill="none" stroke="black" d="M471.01,-122.02C471.01,-139.37 471.01,-163 471.01,-163 471.01,-163 430.7,-163 430.7,-163"/>
<polygon fill="black" stroke="black" points="430.7,-159.5 420.7,-163 430.7,-166.5 430.7,-159.5"/>
</g>
<!-- AuthService  -->
<g id="node4" class="node">
<title>AuthService </title>
<polygon fill="#fb8072" stroke="black" points="481.98,-252 392.02,-252 392.02,-216 481.98,-216 481.98,-252"/>
<text text-anchor="middle" x="437" y="-229.8" font-family="Times,serif" font-size="14.00">AuthService </text>
</g>
<!-- AuthModule&#45;&gt;AuthService  -->
<g id="edge3" class="edge">
<title>AuthModule&#45;&gt;AuthService </title>
<path fill="none" stroke="black" stroke-dasharray="5,2" d="M406.52,-187.11C406.52,-187.11 406.52,-205.99 406.52,-205.99"/>
<polygon fill="black" stroke="black" points="403.02,-205.99 406.52,-215.99 410.02,-205.99 403.02,-205.99"/>
</g>
<!-- HashingProvider  -->
<g id="node5" class="node">
<title>HashingProvider </title>
<polygon fill="#fb8072" stroke="black" points="374.37,-252 259.63,-252 259.63,-216 374.37,-216 374.37,-252"/>
<text text-anchor="middle" x="317" y="-229.8" font-family="Times,serif" font-size="14.00">HashingProvider </text>
</g>
<!-- AuthModule&#45;&gt;HashingProvider  -->
<g id="edge4" class="edge">
<title>AuthModule&#45;&gt;HashingProvider </title>
<path fill="none" stroke="black" stroke-dasharray="5,2" d="M353.7,-187.11C353.7,-187.11 353.7,-205.99 353.7,-205.99"/>
<polygon fill="black" stroke="black" points="350.2,-205.99 353.7,-215.99 357.2,-205.99 350.2,-205.99"/>
</g>
<!-- AuthService -->
<g id="node6" class="node">
<title>AuthService</title>
<ellipse fill="#fdb462" stroke="black" cx="377" cy="-104" rx="59.11" ry="18"/>
<text text-anchor="middle" x="377" y="-99.8" font-family="Times,serif" font-size="14.00">AuthService</text>
</g>
<!-- AuthService&#45;&gt;AuthModule -->
<g id="edge5" class="edge">
<title>AuthService&#45;&gt;AuthModule</title>
<path fill="none" stroke="black" d="M377,-122.11C377,-122.11 377,-140.99 377,-140.99"/>
<polygon fill="black" stroke="black" points="373.5,-140.99 377,-150.99 380.5,-140.99 373.5,-140.99"/>
</g>
<!-- SeedService -->
<g id="node7" class="node">
<title>SeedService</title>
<ellipse fill="#fdb462" stroke="black" cx="241" cy="-104" rx="58.53" ry="18"/>
<text text-anchor="middle" x="241" y="-99.8" font-family="Times,serif" font-size="14.00">SeedService</text>
</g>
<!-- SeedService&#45;&gt;AuthModule -->
<g id="edge6" class="edge">
<title>SeedService&#45;&gt;AuthModule</title>
<path fill="none" stroke="black" d="M279.79,-117.68C279.79,-135.11 279.79,-163 279.79,-163 279.79,-163 323.23,-163 323.23,-163"/>
<polygon fill="black" stroke="black" points="323.23,-166.5 333.23,-163 323.23,-159.5 323.23,-166.5"/>
</g>
<!-- SignInProvider -->
<g id="node8" class="node">
<title>SignInProvider</title>
<ellipse fill="#fdb462" stroke="black" cx="94" cy="-104" rx="70.08" ry="18"/>
<text text-anchor="middle" x="94" y="-99.8" font-family="Times,serif" font-size="14.00">SignInProvider</text>
</g>
<!-- SignInProvider&#45;&gt;AuthModule -->
<g id="edge7" class="edge">
<title>SignInProvider&#45;&gt;AuthModule</title>
<path fill="none" stroke="black" d="M94,-122.28C94,-143.32 94,-175 94,-175 94,-175 323.4,-175 323.4,-175"/>
<polygon fill="black" stroke="black" points="323.4,-178.5 333.4,-175 323.4,-171.5 323.4,-178.5"/>
</g>
</g>
</svg>
