<?xml version="1.0" encoding="UTF-8" standalone="no"?>
<!DOCTYPE svg PUBLIC "-//W3C//DTD SVG 1.1//EN"
 "http://www.w3.org/Graphics/SVG/1.1/DTD/svg11.dtd">
<!-- Generated by graphviz version 2.47.0 (20210316.0004)
 -->
<!-- Title: dependencies Pages: 1 -->
<svg width="891pt" height="211pt"
 viewBox="0.00 0.00 891.00 211.00" xmlns="http://www.w3.org/2000/svg" xmlns:xlink="http://www.w3.org/1999/xlink">
<g id="graph0" class="graph" transform="scale(1 1) rotate(0) translate(4 207)">
<title>dependencies</title>
<polygon fill="white" stroke="transparent" points="-4,4 -4,-207 887,-207 887,4 -4,4"/>
<text text-anchor="start" x="420.51" y="-42.4" font-family="Times-12" font-weight="bold" font-size="14.00">Legend</text>
<polygon fill="#ffffb3" stroke="transparent" points="207.5,-10 207.5,-30 227.5,-30 227.5,-10 207.5,-10"/>
<text text-anchor="start" x="231.13" y="-15.4" font-family="Times-12" font-size="14.00"> &#160;Declarations</text>
<polygon fill="#8dd3c7" stroke="transparent" points="320.5,-10 320.5,-30 340.5,-30 340.5,-10 320.5,-10"/>
<text text-anchor="start" x="344.23" y="-15.4" font-family="Times-12" font-size="14.00"> &#160;Module</text>
<polygon fill="#80b1d3" stroke="transparent" points="406.5,-10 406.5,-30 426.5,-30 426.5,-10 406.5,-10"/>
<text text-anchor="start" x="430.28" y="-15.4" font-family="Times-12" font-size="14.00"> &#160;Bootstrap</text>
<polygon fill="#fdb462" stroke="transparent" points="503.5,-10 503.5,-30 523.5,-30 523.5,-10 503.5,-10"/>
<text text-anchor="start" x="527.17" y="-15.4" font-family="Times-12" font-size="14.00"> &#160;Providers</text>
<polygon fill="#fb8072" stroke="transparent" points="599.5,-10 599.5,-30 619.5,-30 619.5,-10 599.5,-10"/>
<text text-anchor="start" x="623.23" y="-15.4" font-family="Times-12" font-size="14.00"> &#160;Exports</text>
<g id="clust1" class="cluster">
<title>cluster_AppModule</title>
<polygon fill="none" stroke="black" stroke-dasharray="1,5" points="8,-70 8,-195 875,-195 875,-70 8,-70"/>
</g>
<g id="clust6" class="cluster">
<title>cluster_AppModule_providers</title>
<polygon fill="none" stroke="black" points="586,-78 586,-130 867,-130 867,-78 586,-78"/>
</g>
<g id="clust3" class="cluster">
<title>cluster_AppModule_imports</title>
<polygon fill="none" stroke="black" points="16,-78 16,-130 578,-130 578,-78 16,-78"/>
</g>
<!-- ArchivesModule -->
<g id="node1" class="node">
<title>ArchivesModule</title>
<polygon fill="#8dd3c7" stroke="black" points="570.08,-122 567.08,-126 546.08,-126 543.08,-122 459.92,-122 459.92,-86 570.08,-86 570.08,-122"/>
<text text-anchor="middle" x="515" y="-99.8" font-family="Times,serif" font-size="14.00">ArchivesModule</text>
</g>
<!-- AppModule -->
<g id="node6" class="node">
<title>AppModule</title>
<polygon fill="#8dd3c7" stroke="black" points="439.66,-187 436.66,-191 415.66,-191 412.66,-187 356.34,-187 356.34,-151 439.66,-151 439.66,-187"/>
<text text-anchor="middle" x="398" y="-164.8" font-family="Times,serif" font-size="14.00">AppModule</text>
</g>
<!-- ArchivesModule&#45;&gt;AppModule -->
<g id="edge1" class="edge">
<title>ArchivesModule&#45;&gt;AppModule</title>
<path fill="none" stroke="black" d="M515,-122.03C515,-138.4 515,-160 515,-160 515,-160 449.91,-160 449.91,-160"/>
<polygon fill="black" stroke="black" points="449.91,-156.5 439.91,-160 449.91,-163.5 449.91,-156.5"/>
</g>
<!-- AuthModule -->
<g id="node2" class="node">
<title>AuthModule</title>
<polygon fill="#8dd3c7" stroke="black" points="441.55,-122 438.55,-126 417.55,-126 414.55,-122 354.45,-122 354.45,-86 441.55,-86 441.55,-122"/>
<text text-anchor="middle" x="398" y="-99.8" font-family="Times,serif" font-size="14.00">AuthModule</text>
</g>
<!-- AuthModule&#45;&gt;AppModule -->
<g id="edge2" class="edge">
<title>AuthModule&#45;&gt;AppModule</title>
<path fill="none" stroke="black" d="M398,-122.11C398,-122.11 398,-140.99 398,-140.99"/>
<polygon fill="black" stroke="black" points="394.5,-140.99 398,-150.99 401.5,-140.99 394.5,-140.99"/>
</g>
<!-- PrismaModule -->
<g id="node3" class="node">
<title>PrismaModule</title>
<polygon fill="#8dd3c7" stroke="black" points="336.43,-122 333.43,-126 312.43,-126 309.43,-122 237.57,-122 237.57,-86 336.43,-86 336.43,-122"/>
<text text-anchor="middle" x="287" y="-99.8" font-family="Times,serif" font-size="14.00">PrismaModule</text>
</g>
<!-- PrismaModule&#45;&gt;AppModule -->
<g id="edge3" class="edge">
<title>PrismaModule&#45;&gt;AppModule</title>
<path fill="none" stroke="black" d="M287,-122.03C287,-138.4 287,-160 287,-160 287,-160 346.04,-160 346.04,-160"/>
<polygon fill="black" stroke="black" points="346.04,-163.5 356.04,-160 346.04,-156.5 346.04,-163.5"/>
</g>
<!-- RedisModule -->
<g id="node4" class="node">
<title>RedisModule</title>
<polygon fill="#8dd3c7" stroke="black" points="219.94,-122 216.94,-126 195.94,-126 192.94,-122 128.06,-122 128.06,-86 219.94,-86 219.94,-122"/>
<text text-anchor="middle" x="174" y="-99.8" font-family="Times,serif" font-size="14.00">RedisModule</text>
</g>
<!-- RedisModule&#45;&gt;AppModule -->
<g id="edge4" class="edge">
<title>RedisModule&#45;&gt;AppModule</title>
<path fill="none" stroke="black" d="M174,-122.11C174,-141.34 174,-169 174,-169 174,-169 346.13,-169 346.13,-169"/>
<polygon fill="black" stroke="black" points="346.13,-172.5 356.13,-169 346.13,-165.5 346.13,-172.5"/>
</g>
<!-- UserModule -->
<g id="node5" class="node">
<title>UserModule</title>
<polygon fill="#8dd3c7" stroke="black" points="109.98,-122 106.98,-126 85.98,-126 82.98,-122 24.02,-122 24.02,-86 109.98,-86 109.98,-122"/>
<text text-anchor="middle" x="67" y="-99.8" font-family="Times,serif" font-size="14.00">UserModule</text>
</g>
<!-- UserModule&#45;&gt;AppModule -->
<g id="edge5" class="edge">
<title>UserModule&#45;&gt;AppModule</title>
<path fill="none" stroke="black" d="M67,-122.29C67,-144.21 67,-178 67,-178 67,-178 346.08,-178 346.08,-178"/>
<polygon fill="black" stroke="black" points="346.08,-181.5 356.08,-178 346.08,-174.5 346.08,-181.5"/>
</g>
<!-- AppService -->
<g id="node7" class="node">
<title>AppService</title>
<ellipse fill="#fdb462" stroke="black" cx="802" cy="-104" rx="56.74" ry="18"/>
<text text-anchor="middle" x="802" y="-99.8" font-family="Times,serif" font-size="14.00">AppService</text>
</g>
<!-- AppService&#45;&gt;AppModule -->
<g id="edge6" class="edge">
<title>AppService&#45;&gt;AppModule</title>
<path fill="none" stroke="black" d="M802,-122.29C802,-144.21 802,-178 802,-178 802,-178 449.71,-178 449.71,-178"/>
<polygon fill="black" stroke="black" points="449.71,-174.5 439.71,-178 449.71,-181.5 449.71,-174.5"/>
</g>
<!-- PrismaService -->
<g id="node8" class="node">
<title>PrismaService</title>
<ellipse fill="#fdb462" stroke="black" cx="661" cy="-104" rx="66.63" ry="18"/>
<text text-anchor="middle" x="661" y="-99.8" font-family="Times,serif" font-size="14.00">PrismaService</text>
</g>
<!-- PrismaService&#45;&gt;AppModule -->
<g id="edge7" class="edge">
<title>PrismaService&#45;&gt;AppModule</title>
<path fill="none" stroke="black" d="M661,-122.11C661,-141.34 661,-169 661,-169 661,-169 449.67,-169 449.67,-169"/>
<polygon fill="black" stroke="black" points="449.67,-165.5 439.67,-169 449.67,-172.5 449.67,-165.5"/>
</g>
</g>
</svg>
