<?xml version="1.0" encoding="UTF-8" standalone="no"?>
<!DOCTYPE svg PUBLIC "-//W3C//DTD SVG 1.1//EN"
 "http://www.w3.org/Graphics/SVG/1.1/DTD/svg11.dtd">
<!-- Generated by graphviz version 2.47.0 (20210316.0004)
 -->
<!-- Title: dependencies Pages: 1 -->
<svg width="2647pt" height="355pt"
 viewBox="0.00 0.00 2647.00 355.00" xmlns="http://www.w3.org/2000/svg" xmlns:xlink="http://www.w3.org/1999/xlink">
<g id="graph0" class="graph" transform="scale(1 1) rotate(0) translate(4 351)">
<title>dependencies</title>
<polygon fill="white" stroke="transparent" points="-4,4 -4,-351 2643,-351 2643,4 -4,4"/>
<text text-anchor="start" x="1298.51" y="-42.4" font-family="Times-12" font-weight="bold" font-size="14.00">Legend</text>
<polygon fill="#ffffb3" stroke="transparent" points="1085.5,-10 1085.5,-30 1105.5,-30 1105.5,-10 1085.5,-10"/>
<text text-anchor="start" x="1109.13" y="-15.4" font-family="Times-12" font-size="14.00"> &#160;Declarations</text>
<polygon fill="#8dd3c7" stroke="transparent" points="1198.5,-10 1198.5,-30 1218.5,-30 1218.5,-10 1198.5,-10"/>
<text text-anchor="start" x="1222.23" y="-15.4" font-family="Times-12" font-size="14.00"> &#160;Module</text>
<polygon fill="#80b1d3" stroke="transparent" points="1284.5,-10 1284.5,-30 1304.5,-30 1304.5,-10 1284.5,-10"/>
<text text-anchor="start" x="1308.28" y="-15.4" font-family="Times-12" font-size="14.00"> &#160;Bootstrap</text>
<polygon fill="#fdb462" stroke="transparent" points="1381.5,-10 1381.5,-30 1401.5,-30 1401.5,-10 1381.5,-10"/>
<text text-anchor="start" x="1405.17" y="-15.4" font-family="Times-12" font-size="14.00"> &#160;Providers</text>
<polygon fill="#fb8072" stroke="transparent" points="1477.5,-10 1477.5,-30 1497.5,-30 1497.5,-10 1477.5,-10"/>
<text text-anchor="start" x="1501.23" y="-15.4" font-family="Times-12" font-size="14.00"> &#160;Exports</text>
<g id="clust1" class="cluster">
<title>cluster_AppModule</title>
<polygon fill="none" stroke="black" stroke-dasharray="1,5" points="1785,-70 1785,-339 2209,-339 2209,-70 1785,-70"/>
</g>
<g id="clust3" class="cluster">
<title>cluster_AppModule_imports</title>
<polygon fill="none" stroke="black" points="1793,-146 1793,-274 2129,-274 2129,-146 1793,-146"/>
</g>
<g id="clust6" class="cluster">
<title>cluster_AppModule_providers</title>
<polygon fill="none" stroke="black" points="1920,-78 1920,-130 2201,-130 2201,-78 1920,-78"/>
</g>
<g id="clust7" class="cluster">
<title>cluster_ArchivesModule</title>
<polygon fill="none" stroke="black" stroke-dasharray="1,5" points="1595,-138 1595,-206 1777,-206 1777,-138 1595,-138"/>
</g>
<g id="clust12" class="cluster">
<title>cluster_ArchivesModule_providers</title>
<polygon fill="none" stroke="black" points="1603,-146 1603,-198 1769,-198 1769,-146 1603,-146"/>
</g>
<g id="clust13" class="cluster">
<title>cluster_AuthModule</title>
<polygon fill="none" stroke="black" stroke-dasharray="1,5" points="8,-138 8,-206 698,-206 698,-138 8,-138"/>
</g>
<g id="clust16" class="cluster">
<title>cluster_AuthModule_exports</title>
<polygon fill="none" stroke="black" points="452,-146 452,-198 690,-198 690,-146 452,-146"/>
</g>
<g id="clust18" class="cluster">
<title>cluster_AuthModule_providers</title>
<polygon fill="none" stroke="black" points="16,-146 16,-198 444,-198 444,-146 16,-146"/>
</g>
<g id="clust19" class="cluster">
<title>cluster_PrismaModule</title>
<polygon fill="none" stroke="black" stroke-dasharray="1,5" points="2217,-214 2217,-282 2349,-282 2349,-214 2217,-214"/>
</g>
<g id="clust22" class="cluster">
<title>cluster_PrismaModule_exports</title>
<polygon fill="none" stroke="black" points="2225,-222 2225,-274 2341,-274 2341,-222 2225,-222"/>
</g>
<g id="clust25" class="cluster">
<title>cluster_RedisModule</title>
<polygon fill="none" stroke="black" stroke-dasharray="1,5" points="2357,-214 2357,-282 2631,-282 2631,-214 2357,-214"/>
</g>
<g id="clust28" class="cluster">
<title>cluster_RedisModule_exports</title>
<polygon fill="none" stroke="black" points="2513,-222 2513,-274 2623,-274 2623,-222 2513,-222"/>
</g>
<g id="clust30" class="cluster">
<title>cluster_RedisModule_providers</title>
<polygon fill="none" stroke="black" points="2365,-222 2365,-274 2505,-274 2505,-222 2365,-222"/>
</g>
<g id="clust31" class="cluster">
<title>cluster_UserModule</title>
<polygon fill="none" stroke="black" stroke-dasharray="1,5" points="706,-138 706,-206 1587,-206 1587,-138 706,-138"/>
</g>
<g id="clust34" class="cluster">
<title>cluster_UserModule_exports</title>
<polygon fill="none" stroke="black" points="1327,-146 1327,-198 1579,-198 1579,-146 1327,-146"/>
</g>
<g id="clust36" class="cluster">
<title>cluster_UserModule_providers</title>
<polygon fill="none" stroke="black" points="714,-146 714,-198 1319,-198 1319,-146 714,-146"/>
</g>
<!-- ArchivesModule -->
<g id="node1" class="node">
<title>ArchivesModule</title>
<polygon fill="#8dd3c7" stroke="black" points="2121.08,-266 2118.08,-270 2097.08,-270 2094.08,-266 2010.92,-266 2010.92,-230 2121.08,-230 2121.08,-266"/>
<text text-anchor="middle" x="2066" y="-243.8" font-family="Times,serif" font-size="14.00">ArchivesModule</text>
</g>
<!-- AppModule -->
<g id="node6" class="node">
<title>AppModule</title>
<polygon fill="#8dd3c7" stroke="black" points="2181.66,-331 2178.66,-335 2157.66,-335 2154.66,-331 2098.34,-331 2098.34,-295 2181.66,-295 2181.66,-331"/>
<text text-anchor="middle" x="2140" y="-308.8" font-family="Times,serif" font-size="14.00">AppModule</text>
</g>
<!-- ArchivesModule&#45;&gt;AppModule -->
<g id="edge1" class="edge">
<title>ArchivesModule&#45;&gt;AppModule</title>
<path fill="none" stroke="black" d="M2109.61,-266.11C2109.61,-266.11 2109.61,-284.99 2109.61,-284.99"/>
<polygon fill="black" stroke="black" points="2106.11,-284.99 2109.61,-294.99 2113.11,-284.99 2106.11,-284.99"/>
</g>
<!-- AuthModule -->
<g id="node2" class="node">
<title>AuthModule</title>
<polygon fill="#8dd3c7" stroke="black" points="1888.55,-266 1885.55,-270 1864.55,-270 1861.55,-266 1801.45,-266 1801.45,-230 1888.55,-230 1888.55,-266"/>
<text text-anchor="middle" x="1845" y="-243.8" font-family="Times,serif" font-size="14.00">AuthModule</text>
</g>
<!-- AuthModule&#45;&gt;AppModule -->
<g id="edge2" class="edge">
<title>AuthModule&#45;&gt;AppModule</title>
<path fill="none" stroke="black" d="M1845,-266.29C1845,-288.21 1845,-322 1845,-322 1845,-322 2088.05,-322 2088.05,-322"/>
<polygon fill="black" stroke="black" points="2088.05,-325.5 2098.05,-322 2088.05,-318.5 2088.05,-325.5"/>
</g>
<!-- AuthService  -->
<g id="node10" class="node">
<title>AuthService </title>
<polygon fill="#fb8072" stroke="black" points="681.98,-190 592.02,-190 592.02,-154 681.98,-154 681.98,-190"/>
<text text-anchor="middle" x="637" y="-167.8" font-family="Times,serif" font-size="14.00">AuthService </text>
</g>
<!-- AuthModule&#45;&gt;AuthService  -->
<g id="edge12" class="edge">
<title>AuthModule&#45;&gt;AuthService </title>
<path fill="none" stroke="black" stroke-dasharray="5,2" d="M1801.29,-236C1584.72,-236 637,-236 637,-236 637,-236 637,-200.17 637,-200.17"/>
<polygon fill="black" stroke="black" points="640.5,-200.17 637,-190.17 633.5,-200.17 640.5,-200.17"/>
</g>
<!-- HashingProvider  -->
<g id="node11" class="node">
<title>HashingProvider </title>
<polygon fill="#fb8072" stroke="black" points="574.37,-190 459.63,-190 459.63,-154 574.37,-154 574.37,-190"/>
<text text-anchor="middle" x="517" y="-167.8" font-family="Times,serif" font-size="14.00">HashingProvider </text>
</g>
<!-- AuthModule&#45;&gt;HashingProvider  -->
<g id="edge13" class="edge">
<title>AuthModule&#45;&gt;HashingProvider </title>
<path fill="none" stroke="black" stroke-dasharray="5,2" d="M1801.19,-242C1571.54,-242 517,-242 517,-242 517,-242 517,-200.03 517,-200.03"/>
<polygon fill="black" stroke="black" points="520.5,-200.03 517,-190.03 513.5,-200.03 520.5,-200.03"/>
</g>
<!-- PrismaModule -->
<g id="node3" class="node">
<title>PrismaModule</title>
<polygon fill="#8dd3c7" stroke="black" points="2011.43,-190 2008.43,-194 1987.43,-194 1984.43,-190 1912.57,-190 1912.57,-154 2011.43,-154 2011.43,-190"/>
<text text-anchor="middle" x="1962" y="-167.8" font-family="Times,serif" font-size="14.00">PrismaModule</text>
</g>
<!-- PrismaModule&#45;&gt;ArchivesModule -->
<g id="edge8" class="edge">
<title>PrismaModule&#45;&gt;ArchivesModule</title>
<path fill="none" stroke="black" d="M2006.47,-190.01C2006.47,-212.49 2006.47,-248 2006.47,-248 2006.47,-248 2006.89,-248 2006.89,-248"/>
<polygon fill="black" stroke="black" points="2000.75,-251.5 2010.75,-248 2000.75,-244.5 2000.75,-251.5"/>
</g>
<!-- PrismaModule&#45;&gt;AuthModule -->
<g id="edge10" class="edge">
<title>PrismaModule&#45;&gt;AuthModule</title>
<path fill="none" stroke="black" d="M1912.63,-172C1875.29,-172 1830.41,-172 1830.41,-172 1830.41,-172 1830.41,-219.99 1830.41,-219.99"/>
<polygon fill="black" stroke="black" points="1826.91,-219.99 1830.41,-229.99 1833.91,-219.99 1826.91,-219.99"/>
</g>
<!-- UserModule -->
<g id="node5" class="node">
<title>UserModule</title>
<polygon fill="#8dd3c7" stroke="black" points="1992.98,-266 1989.98,-270 1968.98,-270 1965.98,-266 1907.02,-266 1907.02,-230 1992.98,-230 1992.98,-266"/>
<text text-anchor="middle" x="1950" y="-243.8" font-family="Times,serif" font-size="14.00">UserModule</text>
</g>
<!-- PrismaModule&#45;&gt;UserModule -->
<g id="edge21" class="edge">
<title>PrismaModule&#45;&gt;UserModule</title>
<path fill="none" stroke="black" d="M1981.53,-190.01C1981.53,-190.01 1981.53,-219.85 1981.53,-219.85"/>
<polygon fill="black" stroke="black" points="1978.03,-219.85 1981.53,-229.85 1985.03,-219.85 1978.03,-219.85"/>
</g>
<!-- PrismaModule&#45;&gt;AppModule -->
<g id="edge3" class="edge">
<title>PrismaModule&#45;&gt;AppModule</title>
<path fill="none" stroke="black" d="M2001.97,-190.08C2001.97,-226.23 2001.97,-304 2001.97,-304 2001.97,-304 2088.21,-304 2088.21,-304"/>
<polygon fill="black" stroke="black" points="2088.21,-307.5 2098.21,-304 2088.21,-300.5 2088.21,-307.5"/>
</g>
<!-- PrismaService  -->
<g id="node15" class="node">
<title>PrismaService </title>
<polygon fill="#fb8072" stroke="black" points="2333.36,-266 2232.64,-266 2232.64,-230 2333.36,-230 2333.36,-266"/>
<text text-anchor="middle" x="2283" y="-243.8" font-family="Times,serif" font-size="14.00">PrismaService </text>
</g>
<!-- PrismaModule&#45;&gt;PrismaService  -->
<g id="edge17" class="edge">
<title>PrismaModule&#45;&gt;PrismaService </title>
<path fill="none" stroke="black" stroke-dasharray="5,2" d="M1997.48,-190.12C1997.48,-192.97 1997.48,-195 1997.48,-195 1997.48,-195 2283,-195 2283,-195 2283,-195 2283,-219.76 2283,-219.76"/>
<polygon fill="black" stroke="black" points="2279.5,-219.76 2283,-229.76 2286.5,-219.76 2279.5,-219.76"/>
</g>
<!-- RedisModule -->
<g id="node4" class="node">
<title>RedisModule</title>
<polygon fill="#8dd3c7" stroke="black" points="2120.94,-190 2117.94,-194 2096.94,-194 2093.94,-190 2029.06,-190 2029.06,-154 2120.94,-154 2120.94,-190"/>
<text text-anchor="middle" x="2075" y="-167.8" font-family="Times,serif" font-size="14.00">RedisModule</text>
</g>
<!-- RedisModule&#45;&gt;AuthModule -->
<g id="edge11" class="edge">
<title>RedisModule&#45;&gt;AuthModule</title>
<path fill="none" stroke="black" d="M2075,-190.28C2075,-205.95 2075,-226 2075,-226 2075,-226 1859.59,-226 1859.59,-226 1859.59,-226 1859.59,-226.38 1859.59,-226.38"/>
<polygon fill="black" stroke="black" points="1856.09,-219.83 1859.59,-229.83 1863.09,-219.83 1856.09,-219.83"/>
</g>
<!-- RedisModule&#45;&gt;AppModule -->
<g id="edge4" class="edge">
<title>RedisModule&#45;&gt;AppModule</title>
<path fill="none" stroke="black" d="M2120.78,-181C2129.64,-181 2136.24,-181 2136.24,-181 2136.24,-181 2136.24,-284.92 2136.24,-284.92"/>
<polygon fill="black" stroke="black" points="2132.74,-284.92 2136.24,-294.92 2139.74,-284.92 2132.74,-284.92"/>
</g>
<!-- RedisService  -->
<g id="node16" class="node">
<title>RedisService </title>
<polygon fill="#fb8072" stroke="black" points="2614.86,-266 2521.14,-266 2521.14,-230 2614.86,-230 2614.86,-266"/>
<text text-anchor="middle" x="2568" y="-243.8" font-family="Times,serif" font-size="14.00">RedisService </text>
</g>
<!-- RedisModule&#45;&gt;RedisService  -->
<g id="edge19" class="edge">
<title>RedisModule&#45;&gt;RedisService </title>
<path fill="none" stroke="black" stroke-dasharray="5,2" d="M2120.94,-163C2243.32,-163 2568,-163 2568,-163 2568,-163 2568,-219.97 2568,-219.97"/>
<polygon fill="black" stroke="black" points="2564.5,-219.97 2568,-229.97 2571.5,-219.97 2564.5,-219.97"/>
</g>
<!-- UserModule&#45;&gt;AppModule -->
<g id="edge5" class="edge">
<title>UserModule&#45;&gt;AppModule</title>
<path fill="none" stroke="black" d="M1950,-266.11C1950,-285.34 1950,-313 1950,-313 1950,-313 2088.3,-313 2088.3,-313"/>
<polygon fill="black" stroke="black" points="2088.3,-316.5 2098.3,-313 2088.3,-309.5 2088.3,-316.5"/>
</g>
<!-- CreateUserProvider  -->
<g id="node18" class="node">
<title>CreateUserProvider </title>
<polygon fill="#fb8072" stroke="black" points="1571.17,-190 1440.83,-190 1440.83,-154 1571.17,-154 1571.17,-190"/>
<text text-anchor="middle" x="1506" y="-167.8" font-family="Times,serif" font-size="14.00">CreateUserProvider </text>
</g>
<!-- UserModule&#45;&gt;CreateUserProvider  -->
<g id="edge22" class="edge">
<title>UserModule&#45;&gt;CreateUserProvider </title>
<path fill="none" stroke="black" stroke-dasharray="5,2" d="M1970.07,-229.85C1970.07,-217.73 1970.07,-204 1970.07,-204 1970.07,-204 1506,-204 1506,-204 1506,-204 1506,-200.24 1506,-200.24"/>
<polygon fill="black" stroke="black" points="1509.5,-200.24 1506,-190.24 1502.5,-200.24 1509.5,-200.24"/>
</g>
<!-- UserService  -->
<g id="node19" class="node">
<title>UserService </title>
<polygon fill="#fb8072" stroke="black" points="1422.9,-190 1335.1,-190 1335.1,-154 1422.9,-154 1422.9,-190"/>
<text text-anchor="middle" x="1379" y="-167.8" font-family="Times,serif" font-size="14.00">UserService </text>
</g>
<!-- UserModule&#45;&gt;UserService  -->
<g id="edge23" class="edge">
<title>UserModule&#45;&gt;UserService </title>
<path fill="none" stroke="black" stroke-dasharray="5,2" d="M1958.61,-229.87C1958.61,-219.29 1958.61,-208 1958.61,-208 1958.61,-208 1379,-208 1379,-208 1379,-208 1379,-200.42 1379,-200.42"/>
<polygon fill="black" stroke="black" points="1382.5,-200.42 1379,-190.42 1375.5,-200.42 1382.5,-200.42"/>
</g>
<!-- AppService -->
<g id="node7" class="node">
<title>AppService</title>
<ellipse fill="#fdb462" stroke="black" cx="1985" cy="-104" rx="56.74" ry="18"/>
<text text-anchor="middle" x="1985" y="-99.8" font-family="Times,serif" font-size="14.00">AppService</text>
</g>
<!-- AppService&#45;&gt;AppModule -->
<g id="edge6" class="edge">
<title>AppService&#45;&gt;AppModule</title>
<path fill="none" stroke="black" d="M2035.45,-112.23C2035.45,-120.81 2035.45,-133 2035.45,-133 2035.45,-133 2151.43,-133 2151.43,-133 2151.43,-133 2151.43,-284.75 2151.43,-284.75"/>
<polygon fill="black" stroke="black" points="2147.93,-284.75 2151.43,-294.75 2154.93,-284.75 2147.93,-284.75"/>
</g>
<!-- PrismaService -->
<g id="node8" class="node">
<title>PrismaService</title>
<ellipse fill="#fdb462" stroke="black" cx="2126" cy="-104" rx="66.63" ry="18"/>
<text text-anchor="middle" x="2126" y="-99.8" font-family="Times,serif" font-size="14.00">PrismaService</text>
</g>
<!-- PrismaService&#45;&gt;PrismaModule -->
<g id="edge18" class="edge">
<title>PrismaService&#45;&gt;PrismaModule</title>
<path fill="none" stroke="black" d="M2089.95,-119.35C2089.95,-130.63 2089.95,-144 2089.95,-144 2089.95,-144 1969.8,-144 1969.8,-144 1969.8,-144 1969.8,-144.98 1969.8,-144.98"/>
<polygon fill="black" stroke="black" points="1966.3,-143.79 1969.8,-153.79 1973.3,-143.79 1966.3,-143.79"/>
</g>
<!-- PrismaService&#45;&gt;AppModule -->
<g id="edge7" class="edge">
<title>PrismaService&#45;&gt;AppModule</title>
<path fill="none" stroke="black" d="M2166.63,-118.37C2166.63,-118.37 2166.63,-284.74 2166.63,-284.74"/>
<polygon fill="black" stroke="black" points="2163.13,-284.74 2166.63,-294.74 2170.13,-284.74 2163.13,-284.74"/>
</g>
<!-- ArchivesService -->
<g id="node9" class="node">
<title>ArchivesService</title>
<ellipse fill="#fdb462" stroke="black" cx="1686" cy="-172" rx="74.7" ry="18"/>
<text text-anchor="middle" x="1686" y="-167.8" font-family="Times,serif" font-size="14.00">ArchivesService</text>
</g>
<!-- ArchivesService&#45;&gt;ArchivesModule -->
<g id="edge9" class="edge">
<title>ArchivesService&#45;&gt;ArchivesModule</title>
<path fill="none" stroke="black" d="M1686,-190.16C1686,-195.04 1686,-199 1686,-199 1686,-199 2020.25,-199 2020.25,-199 2020.25,-199 2020.25,-219.75 2020.25,-219.75"/>
<polygon fill="black" stroke="black" points="2016.75,-219.75 2020.25,-229.75 2023.75,-219.75 2016.75,-219.75"/>
</g>
<!-- AuthService -->
<g id="node12" class="node">
<title>AuthService</title>
<ellipse fill="#fdb462" stroke="black" cx="377" cy="-172" rx="59.11" ry="18"/>
<text text-anchor="middle" x="377" y="-167.8" font-family="Times,serif" font-size="14.00">AuthService</text>
</g>
<!-- AuthService&#45;&gt;AuthModule -->
<g id="edge14" class="edge">
<title>AuthService&#45;&gt;AuthModule</title>
<path fill="none" stroke="black" d="M377,-190.01C377,-212.49 377,-248 377,-248 377,-248 1791.07,-248 1791.07,-248"/>
<polygon fill="black" stroke="black" points="1791.07,-251.5 1801.07,-248 1791.07,-244.5 1791.07,-251.5"/>
</g>
<!-- SeedService -->
<g id="node13" class="node">
<title>SeedService</title>
<ellipse fill="#fdb462" stroke="black" cx="241" cy="-172" rx="58.53" ry="18"/>
<text text-anchor="middle" x="241" y="-167.8" font-family="Times,serif" font-size="14.00">SeedService</text>
</g>
<!-- SeedService&#45;&gt;AuthModule -->
<g id="edge15" class="edge">
<title>SeedService&#45;&gt;AuthModule</title>
<path fill="none" stroke="black" d="M241,-190.2C241,-214.36 241,-254 241,-254 241,-254 1791.26,-254 1791.26,-254"/>
<polygon fill="black" stroke="black" points="1791.27,-257.5 1801.26,-254 1791.26,-250.5 1791.27,-257.5"/>
</g>
<!-- SignInProvider -->
<g id="node14" class="node">
<title>SignInProvider</title>
<ellipse fill="#fdb462" stroke="black" cx="94" cy="-172" rx="70.08" ry="18"/>
<text text-anchor="middle" x="94" y="-167.8" font-family="Times,serif" font-size="14.00">SignInProvider</text>
</g>
<!-- SignInProvider&#45;&gt;AuthModule -->
<g id="edge16" class="edge">
<title>SignInProvider&#45;&gt;AuthModule</title>
<path fill="none" stroke="black" d="M94,-190.23C94,-216.01 94,-260 94,-260 94,-260 1791.28,-260 1791.28,-260"/>
<polygon fill="black" stroke="black" points="1791.28,-263.5 1801.28,-260 1791.28,-256.5 1791.28,-263.5"/>
</g>
<!-- RedisService -->
<g id="node17" class="node">
<title>RedisService</title>
<ellipse fill="#fdb462" stroke="black" cx="2435" cy="-248" rx="61.97" ry="18"/>
<text text-anchor="middle" x="2435" y="-243.8" font-family="Times,serif" font-size="14.00">RedisService</text>
</g>
<!-- RedisService&#45;&gt;RedisModule -->
<g id="edge20" class="edge">
<title>RedisService&#45;&gt;RedisModule</title>
<path fill="none" stroke="black" d="M2435,-229.99C2435,-207.51 2435,-172 2435,-172 2435,-172 2130.96,-172 2130.96,-172"/>
<polygon fill="black" stroke="black" points="2130.96,-168.5 2120.96,-172 2130.96,-175.5 2130.96,-168.5"/>
</g>
<!-- CreateUserProvider -->
<g id="node20" class="node">
<title>CreateUserProvider</title>
<ellipse fill="#fdb462" stroke="black" cx="1223" cy="-172" rx="87.94" ry="18"/>
<text text-anchor="middle" x="1223" y="-167.8" font-family="Times,serif" font-size="14.00">CreateUserProvider</text>
</g>
<!-- CreateUserProvider&#45;&gt;UserModule -->
<g id="edge24" class="edge">
<title>CreateUserProvider&#45;&gt;UserModule</title>
<path fill="none" stroke="black" d="M1223,-190.1C1223,-201.09 1223,-213 1223,-213 1223,-213 1947.16,-213 1947.16,-213 1947.16,-213 1947.16,-219.68 1947.16,-219.68"/>
<polygon fill="black" stroke="black" points="1943.66,-219.68 1947.16,-229.68 1950.66,-219.68 1943.66,-219.68"/>
</g>
<!-- FindOneUserByEmailProvider -->
<g id="node21" class="node">
<title>FindOneUserByEmailProvider</title>
<ellipse fill="#fdb462" stroke="black" cx="987" cy="-172" rx="130.8" ry="18"/>
<text text-anchor="middle" x="987" y="-167.8" font-family="Times,serif" font-size="14.00">FindOneUserByEmailProvider</text>
</g>
<!-- FindOneUserByEmailProvider&#45;&gt;UserModule -->
<g id="edge25" class="edge">
<title>FindOneUserByEmailProvider&#45;&gt;UserModule</title>
<path fill="none" stroke="black" d="M987,-190.04C987,-202.56 987,-217 987,-217 987,-217 1935.7,-217 1935.7,-217 1935.7,-217 1935.7,-219.97 1935.7,-219.97"/>
<polygon fill="black" stroke="black" points="1932.2,-219.97 1935.7,-229.97 1939.2,-219.97 1932.2,-219.97"/>
</g>
<!-- UserService -->
<g id="node22" class="node">
<title>UserService</title>
<ellipse fill="#fdb462" stroke="black" cx="780" cy="-172" rx="58.44" ry="18"/>
<text text-anchor="middle" x="780" y="-167.8" font-family="Times,serif" font-size="14.00">UserService</text>
</g>
<!-- UserService&#45;&gt;UserModule -->
<g id="edge26" class="edge">
<title>UserService&#45;&gt;UserModule</title>
<path fill="none" stroke="black" d="M780,-190.05C780,-204.37 780,-222 780,-222 780,-222 1924.24,-222 1924.24,-222 1924.24,-222 1924.24,-222.79 1924.24,-222.79"/>
<polygon fill="black" stroke="black" points="1920.74,-219.94 1924.24,-229.94 1927.74,-219.94 1920.74,-219.94"/>
</g>
</g>
</svg>
